<svg xmlns="http://www.w3.org/2000/svg" viewBox="0 -0.5 75 90" shape-rendering="crispEdges">
<metadata>Made with Pixels to Svg https://codepen.io/shshaw/pen/XbxvNj</metadata>
<path stroke="#000000" d="M31 1h5M29 2h2M36 2h2M28 3h1M38 3h1M28 4h1M39 4h1M27 5h1M39 5h1M23 6h3M27 6h1M40 6h1M23 7h1M26 7h2M40 7h1M24 8h1M27 8h2M31 8h3M38 8h3M25 9h1M28 9h2M31 9h1M34 9h1M37 9h1M40 9h1M26 10h1M39 10h1M27 11h1M39 11h1M28 12h1M39 12h1M28 13h1M33 13h5M39 13h1M28 14h1M33 14h1M37 14h1M39 14h1M27 15h1M30 15h1M34 15h3M40 15h1M26 16h1M31 16h1M37 16h1M41 16h1M24 17h2M27 17h1M32 17h6M40 17h1M42 17h1M23 18h1M28 18h1M32 18h6M40 18h1M43 18h1M23 19h1M29 19h1M33 19h4M39 19h1M43 19h1M22 20h1M30 20h1M38 20h1M43 20h1M22 21h1M31 21h1M34 21h1M37 21h1M44 21h1M21 22h1M32 22h1M34 22h1M36 22h1M44 22h1M20 23h1M33 23h3M44 23h1M20 24h1M34 24h1M45 24h1M20 25h1M45 25h1M19 26h2M24 26h1M34 26h1M43 26h1M45 26h1M19 27h1M24 27h1M34 27h1M43 27h1M45 27h1M19 28h1M23 28h1M25 28h1M42 28h1M45 28h1M19 29h1M23 29h1M25 29h1M34 29h1M42 29h1M45 29h1M18 30h1M23 30h1M25 30h1M34 30h1M42 30h1M45 30h1M18 31h1M23 31h1M26 31h1M41 31h1M45 31h1M18 32h1M23 32h1M26 32h1M34 32h1M41 32h5M18 33h6M26 33h1M34 33h1M41 33h1M44 33h1M19 34h1M23 34h3M27 34h1M40 34h1M44 34h1M19 35h1M25 35h1M27 35h1M34 35h1M40 35h1M44 35h1M19 36h1M25 36h1M27 36h1M34 36h1M40 36h1M44 36h1M19 37h1M25 37h1M27 37h1M34 37h1M40 37h1M44 37h1M19 38h1M24 38h1M27 38h1M33 38h3M40 38h1M43 38h1M20 39h1M23 39h2M26 39h1M33 39h3M41 39h2M21 40h3M26 40h1M32 40h5M41 40h1M25 41h1M32 41h5M42 41h1M25 42h1M31 42h7M42 42h1M25 43h1M31 43h7M42 43h1M24 44h1M30 44h9M43 44h1M24 45h1M30 45h3M34 45h5M43 45h1M24 46h1M29 46h4M34 46h6M43 46h1M24 47h1M29 47h3M33 47h7M43 47h1M24 48h8M33 48h1M35 48h9M26 49h5M33 49h1M35 49h8M26 50h5M32 50h1M36 50h5M42 50h1M26 51h5M32 51h1M36 51h5M42 51h1M26 52h4M32 52h1M36 52h5M42 52h1M26 53h4M31 53h2M36 53h5M42 53h1M26 54h4M31 54h1M37 54h4M42 54h1M26 55h3M31 55h1M37 55h4M42 55h1M26 56h3M31 56h1M37 56h4M42 56h1M26 57h3M31 57h1M37 57h4M42 57h1M26 58h3M30 58h1M38 58h2M42 58h1M26 59h2M30 59h1M38 59h5M27 60h3M39 60h3M26 61h5M38 61h5M26 62h3M30 62h2M38 62h3M42 62h2M25 63h4M31 63h1M37 63h5M43 63h3M25 64h7M37 64h6M45 64h3M26 65h5M37 65h3M41 65h7" />
<path stroke="#786cd4" d="M31 2h5M29 3h3M29 4h1M33 4h4M28 5h2M28 6h3M35 6h2M28 7h3M32 7h2M38 7h2M25 8h1M29 8h2M34 8h1M37 8h1M26 9h1M35 9h2M27 10h1M31 10h4M36 10h1M38 10h1M28 11h1M36 11h2M35 12h3M29 13h1M29 14h3M31 15h2M32 16h5M42 33h2M20 34h3M41 34h2M41 35h2M22 36h3M41 36h2M22 37h3M41 37h1M22 38h1M22 39h1" />
<path stroke="#9292d4" d="M32 3h6M30 4h3M37 4h2M30 5h9M31 6h4M37 6h3M24 7h2M31 7h1M34 7h4M26 8h1M35 8h2M27 9h1M30 9h1M28 10h3M35 10h1M37 10h1M29 11h7M38 11h1M29 12h6M38 12h1M30 13h3M38 13h1M32 14h1M38 14h1M33 15h1M37 15h1M43 34h1M20 35h5M43 35h1M20 36h2M43 36h1M20 37h2M42 37h2M20 38h2M23 38h1M41 38h2M21 39h1" />
<path stroke="#ffffff" d="M32 9h1M39 9h1M34 14h1M36 14h1" />
<path stroke="#ed1c24" d="M33 9h1M38 9h1" />
<path stroke="#73191e" d="M35 14h1" />
<path stroke="#2b0e02" d="M28 15h2M38 15h2M27 16h1M38 16h1M26 17h1M28 17h2M38 17h1M24 18h3M29 18h2M24 19h1M30 19h1M23 20h2M31 20h1M34 20h2M23 21h1M32 21h1M22 22h2M33 22h1M21 23h3M21 24h1M21 25h1M33 25h3M21 26h1M20 27h2M20 28h1M26 28h1M33 28h3M43 28h1M20 29h1M26 29h2M43 29h1M19 30h1M26 30h2M43 30h1M19 31h1M27 31h1M33 31h3M42 31h2M19 32h4M27 32h2M27 33h2M28 34h1M33 34h3M28 35h1M28 36h1M28 37h1M28 38h1M27 39h2M36 39h1M27 40h1M37 40h1M26 41h2M37 41h1M26 42h2M38 42h1M26 43h1M38 43h1M25 44h2M39 44h1M25 45h2M39 45h1M25 46h3M40 46h1M25 47h4M40 47h1" />
<path stroke="#5c240c" d="M28 16h3M39 16h2M30 17h2M39 17h1M41 17h1M27 18h1M31 18h1M38 18h2M41 18h2M25 19h4M31 19h2M37 19h2M40 19h3M25 20h5M32 20h2M36 20h2M39 20h4M24 21h7M33 21h1M35 21h2M38 21h6M24 22h8M35 22h1M37 22h7M24 23h9M36 23h8M22 24h12M35 24h10M22 25h10M37 25h8M22 26h2M25 26h9M35 26h8M44 26h1M22 27h2M25 27h9M35 27h8M44 27h1M21 28h2M27 28h5M37 28h5M44 28h1M21 29h2M28 29h6M35 29h7M44 29h1M20 30h3M28 30h6M35 30h7M44 30h1M20 31h3M28 31h4M37 31h4M44 31h1M29 32h5M35 32h6M29 33h5M35 33h6M29 34h3M37 34h3M29 35h5M35 35h5M29 36h5M35 36h5M29 37h5M35 37h5M29 38h4M36 38h4M29 39h4M37 39h4M28 40h4M38 40h3M28 41h4M38 41h4M28 42h3M39 42h3M27 43h4M39 43h3M27 44h3M40 44h3M27 45h3M40 45h3M28 46h1M41 46h2M41 47h2" />
<path stroke="#ffc20e" d="M32 25h1M36 25h1M32 28h1M36 28h1M32 31h1M36 31h1M32 34h1M36 34h1" />
<path stroke="#2e2c2e" d="M33 45h1M33 46h1M32 47h1M32 48h1M31 49h2M31 50h1M41 50h1M31 51h1M41 51h1M30 52h2M41 52h1M30 53h1M41 53h1M30 54h1M41 54h1M29 55h2M41 55h1M29 56h2M41 56h1M29 57h2M41 57h1M29 58h1M40 58h2M28 59h2M29 62h1M41 62h1M29 63h2M42 63h1M43 64h2" />
</svg>